<svg class="plexico-icon-headless-plexamp-42" id="headless-plexamp" width="68" height="49" viewBox="0 0 68 49" fill="none" xmlns="http://www.w3.org/2000/svg"><g clip-path="url(#clip0_1028_1125)"><path d="M61.95 48.23H5.73C2.57 48.23 0 45.66 0 42.5V5.73C0 2.57 2.57 0 5.73 0H61.95C65.11 0 67.68 2.57 67.68 5.73V42.5C67.68 45.66 65.11 48.23 61.95 48.23V48.23ZM5.73 3.5C4.5 3.5 3.5 4.5 3.5 5.73V42.5C3.5 43.73 4.5 44.73 5.73 44.73H61.95C63.18 44.73 64.18 43.73 64.18 42.5V5.73C64.18 4.5 63.18 3.5 61.95 3.5H5.73V3.5Z" fill="white"></path><g clip-path="url(#clip1_1028_1125)"><path d="M41.4375 22.8982L41.2641 22.5935C41.2688 20.4185 40.261 19.5326 39.0844 18.8576C39.4407 18.7638 39.8063 18.6888 39.9094 18.2388C40.5235 18.0841 40.65 17.7982 40.711 17.4982C40.8704 17.3904 41.4047 17.0904 41.3485 16.5747C41.6485 16.3685 41.8172 16.1013 41.7282 15.7263C42.0516 15.3747 42.136 15.0841 42 14.8169C42.3891 14.3341 42.2157 14.0857 42.0516 13.8372C42.3422 13.3122 42.0844 12.7497 41.2735 12.8435C40.95 12.3701 40.2469 12.4779 40.1391 12.4779C40.0172 12.3279 39.8579 12.1966 39.3657 12.2576C39.0469 11.9716 38.6907 12.0232 38.3204 12.1591C37.8844 11.8169 37.5938 12.0935 37.261 12.1966C36.7313 12.0279 36.6094 12.2576 36.3516 12.356C35.775 12.2341 35.5969 12.4966 35.3204 12.7732L34.9969 12.7685C34.125 13.2747 33.6938 14.306 33.5391 14.8357C33.3844 14.306 32.9532 13.2747 32.0813 12.7685L31.7579 12.7732C31.4813 12.4966 31.3032 12.2341 30.7266 12.356C30.4641 12.2622 30.3469 12.0279 29.8172 12.1966C29.6016 12.131 29.4 11.9904 29.1657 11.9951C29.0438 11.9997 28.9079 12.0419 28.7579 12.1591C28.3875 12.0185 28.0313 11.9716 27.7125 12.2576C27.2204 12.1966 27.0563 12.3232 26.9391 12.4779C26.8313 12.4779 26.1282 12.3701 25.8047 12.8435C24.9938 12.7497 24.7407 13.3122 25.0313 13.8372C24.8672 14.0904 24.6938 14.3388 25.0829 14.8169C24.9469 15.0841 25.0313 15.3747 25.3547 15.7263C25.2704 16.1013 25.4391 16.3685 25.7344 16.5747C25.6782 17.0904 26.2125 17.3904 26.3719 17.4982C26.4329 17.7982 26.5594 18.0794 27.1735 18.2388C27.2766 18.6841 27.6422 18.7638 27.9985 18.8576C26.8219 19.5326 25.8141 20.4185 25.8188 22.5935L25.6454 22.8982C24.2954 23.7044 23.0813 26.306 24.9797 28.4154C25.1016 29.0763 25.3125 29.5497 25.4954 30.0747C25.7719 32.1935 27.5813 33.1826 28.0547 33.2997C28.7532 33.8247 29.4985 34.3216 30.5016 34.6685C31.4532 35.6341 32.4844 35.9997 33.5157 35.9997H33.5625C34.5985 35.9997 35.625 35.6341 36.5719 34.6685C37.5797 34.3216 38.3204 33.8247 39.0188 33.2997C39.4969 33.1826 41.3016 32.1935 41.5782 30.0747C41.761 29.5497 41.9719 29.0763 42.0938 28.4154C43.9969 26.3013 42.7829 23.7044 41.4375 22.8982V22.8982ZM40.3969 22.5232C40.3266 23.3997 35.761 19.4716 36.5485 19.3404C38.6907 18.9888 40.4672 20.2404 40.3969 22.5232V22.5232ZM38.3813 26.8872C37.2329 27.6279 35.5782 27.1497 34.6875 25.8185C33.7969 24.4872 34.0032 22.8091 35.1516 22.0685C36.3 21.3279 37.9547 21.806 38.8454 23.1372C39.736 24.4685 39.5297 26.1466 38.3813 26.8872ZM35.1985 13.3732C35.236 13.5701 35.2829 13.6919 35.3344 13.7294C35.5875 13.4576 35.7938 13.181 36.1219 12.9185C36.1219 13.0732 36.0422 13.2372 36.2391 13.3591C36.4125 13.1247 36.6516 12.9138 36.9657 12.7357C36.8157 12.9982 36.9375 13.0779 37.0219 13.1857C37.261 12.9794 37.4907 12.7732 37.9313 12.6091C37.8094 12.7544 37.6407 12.8997 37.8188 13.0685C38.0672 12.9138 38.3157 12.7591 38.9016 12.6513C38.7704 12.7966 38.4938 12.9466 38.6625 13.0919C38.9719 12.9747 39.3188 12.8857 39.6985 12.8388C39.5157 12.9888 39.3657 13.1341 39.5157 13.2513C39.8485 13.1482 40.3079 13.0122 40.7532 13.1294L40.4719 13.4154C40.4391 13.4529 41.1329 13.4435 41.5922 13.4529C41.4235 13.6872 41.2547 13.9076 41.1563 14.306C41.2032 14.3529 41.4282 14.3247 41.6438 14.306C41.4235 14.7701 41.0438 14.8826 40.9547 15.0841C41.0907 15.1872 41.2735 15.1591 41.4797 15.0888C41.3204 15.4122 40.9922 15.6372 40.7297 15.8997C40.7954 15.9466 40.9125 15.9747 41.1844 15.9419C40.9407 16.1997 40.65 16.4341 40.3032 16.6451C40.3641 16.7154 40.575 16.7154 40.7719 16.7201C40.4579 17.0247 40.0547 17.1841 39.675 17.3857C39.8625 17.5122 39.9985 17.4841 40.1438 17.4841C39.8766 17.7044 39.4219 17.8169 39 17.9529C39.0797 18.0794 39.1594 18.1122 39.3329 18.1451C38.8875 18.3935 38.2454 18.281 38.0672 18.4076C38.1094 18.5341 38.236 18.6138 38.3813 18.6794C37.6594 18.7216 35.6954 18.6513 35.3157 17.1654C36.0516 16.3544 37.3969 15.4076 39.7079 14.231C37.9079 14.831 36.286 15.6372 34.9266 16.7388C33.3188 15.9935 34.4204 14.1185 35.1985 13.3732V13.3732ZM33.586 18.7451C34.7204 18.731 36.1219 19.5794 36.1172 20.3716C36.1125 21.0747 35.1329 21.6419 33.5954 21.6326C32.0907 21.6138 31.0782 20.9201 31.0829 20.2357C31.0829 19.6779 32.311 18.7122 33.586 18.7451ZM27.8204 18.1451C27.9938 18.1122 28.0735 18.0747 28.1532 17.9529C27.7313 17.8216 27.2766 17.7044 27.0094 17.4841C27.1547 17.4841 27.2907 17.5169 27.4782 17.3857C27.0985 17.1841 26.6954 17.0247 26.3813 16.7201C26.5782 16.7154 26.7891 16.7201 26.85 16.6451C26.5032 16.4341 26.2125 16.1997 25.9688 15.9419C26.2407 15.9747 26.3579 15.9466 26.4235 15.8997C26.161 15.6372 25.8282 15.4122 25.6735 15.0888C25.875 15.1591 26.0625 15.1826 26.1985 15.0841C26.1094 14.8872 25.7297 14.7701 25.5094 14.306C25.725 14.3247 25.95 14.3529 25.9969 14.306C25.8985 13.9076 25.725 13.6826 25.561 13.4529C26.0204 13.4482 26.7141 13.4529 26.6813 13.4154L26.4 13.1294C26.8454 13.0122 27.3047 13.1482 27.6375 13.2513C27.7875 13.1341 27.6329 12.9888 27.4547 12.8388C27.8344 12.8904 28.1766 12.9747 28.4907 13.0919C28.6547 12.9466 28.3829 12.7966 28.2516 12.6513C28.8375 12.7591 29.086 12.9138 29.3344 13.0685C29.5125 12.8997 29.3438 12.7544 29.2219 12.6091C29.6625 12.7685 29.8922 12.9794 30.1313 13.1857C30.211 13.0779 30.3375 12.9982 30.1875 12.7357C30.5016 12.9138 30.7407 13.1247 30.9141 13.3591C31.1063 13.2372 31.0313 13.0685 31.0313 12.9185C31.3594 13.181 31.5657 13.4576 31.8188 13.7294C31.8704 13.6919 31.9125 13.5701 31.9547 13.3732C32.7329 14.1185 33.8344 15.9935 32.236 16.7388C30.8766 15.6372 29.2547 14.831 27.4547 14.231C29.7657 15.4029 31.111 16.3544 31.8469 17.1654C31.4719 18.656 29.5032 18.7216 28.7813 18.6794C28.9266 18.6138 29.0532 18.5294 29.0954 18.4076C28.9079 18.2763 28.2704 18.3888 27.8204 18.1451V18.1451ZM30.6375 19.2747C31.425 19.406 26.8594 23.3294 26.7891 22.4576C26.7188 20.1747 28.5 18.9185 30.6375 19.2747ZM25.7907 28.031C24.6797 27.1497 24.3235 24.5763 26.3813 23.4232C27.6235 23.0951 26.8032 28.4763 25.7907 28.031ZM30.0563 32.6341C29.4329 33.0044 27.9094 32.8544 26.8313 31.3263C26.1047 30.0419 26.1985 28.7388 26.7094 28.3544C27.4735 27.8951 28.6547 28.5138 29.5641 29.5544C30.3563 30.4919 30.7172 32.1466 30.0563 32.6341V32.6341ZM28.8188 27.0232C27.6704 26.2826 27.4641 24.6044 28.3547 23.2732C29.2454 21.9419 30.9 21.4638 32.0485 22.2044C33.1969 22.9451 33.4032 24.6232 32.5125 25.9544C31.6172 27.2857 29.9625 27.7638 28.8188 27.0232V27.0232ZM33.6094 35.2497C32.2313 35.306 30.8813 34.1388 30.9 33.7357C30.8813 33.1404 32.5782 32.6763 33.6797 32.7044C34.7907 32.6576 36.286 33.056 36.2907 33.5904C36.3141 34.106 34.9407 35.2732 33.6094 35.2497V35.2497ZM36.3704 29.3951C36.3797 30.7872 35.1422 31.9169 33.6141 31.9263C32.086 31.9357 30.8391 30.8107 30.8297 29.4232V29.3951C30.8204 28.0029 32.0579 26.8732 33.586 26.8638C35.1141 26.8544 36.361 27.9794 36.3704 29.3669V29.3951V29.3951ZM40.2235 31.3966C39.0375 33.0185 37.4297 33.0794 36.8344 32.6294C36.211 32.0482 36.6844 30.2435 37.5422 29.2544C38.5219 28.1622 39.5719 27.4497 40.3032 28.0076C40.7954 28.4904 41.086 30.3091 40.2235 31.3966ZM41.2969 27.9654C40.2891 28.406 39.4688 23.0294 40.7063 23.3576C42.7641 24.5154 42.4079 27.0888 41.2969 27.9654Z" fill="white"></path></g></g><defs><clipPath id="clip0_1028_1125"><rect width="67.68" height="48.23" fill="white"></rect></clipPath><clipPath id="clip1_1028_1125"><rect width="19.0781" height="24" fill="white" transform="translate(24 12)"></rect></clipPath></defs></svg>
